<svg width="18" height="18" viewBox="0 0 18 18" fill="none" xmlns="http://www.w3.org/2000/svg">
<path d="M11.5 7.75V7.33333C11.5 5.95262 12.6193 4.83333 14 4.83333M16.5 7.75V7.33333C16.5 5.95262 15.3807 4.83333 14 4.83333M14 4.83333C14.9205 4.83333 15.6667 4.08714 15.6667 3.16667C15.6667 2.24619 14.9205 1.5 14 1.5C13.0795 1.5 12.3333 2.24619 12.3333 3.16667C12.3333 4.08714 13.0795 4.83333 14 4.83333ZM16.5 13.4617V14.8333C16.5 15.7538 15.7538 16.5 14.8333 16.5C7.46954 16.5 1.5 10.5305 1.5 3.16667C1.5 2.24619 2.24619 1.5 3.16667 1.5H4.53828C5.21979 1.5 5.83263 1.91492 6.08574 2.54768L6.76379 4.2428C7.08571 5.04761 6.73698 5.96484 5.96168 6.35249L5.66667 6.5C5.66667 6.5 6.08333 8.58333 7.75 10.25C9.41667 11.9167 11.5 12.3333 11.5 12.3333L11.6475 12.0383C12.0352 11.263 12.9524 10.9143 13.7572 11.2362L15.4523 11.9143C16.0851 12.1674 16.5 12.7802 16.5 13.4617Z" stroke="#0F172A" stroke-width="1.5" stroke-linecap="round" stroke-linejoin="round"/>
</svg>
