<svg width="80" height="80" viewBox="0 0 80 80" fill="none" xmlns="http://www.w3.org/2000/svg">
<g clip-path="url(#clip0_2230_41)">
<path d="M40 80C62.0914 80 80 62.0914 80 40C80 17.9086 62.0914 0 40 0C17.9086 0 0 17.9086 0 40C0 62.0914 17.9086 80 40 80Z" fill="#726C6C" fill-opacity="0.37"/>
<path d="M29.668 26.0325V53.9689C29.668 56.0992 31.9548 57.3936 33.7159 56.234L55.1118 42.2658C55.4864 42.0226 55.7949 41.6862 56.0087 41.2878C56.2225 40.8894 56.3346 40.442 56.3346 39.9872C56.3346 39.5324 56.2225 39.0851 56.0087 38.6867C55.7949 38.2883 55.4864 37.9518 55.1118 37.7086L33.7159 23.7674C33.3194 23.5043 32.8611 23.3559 32.3892 23.3378C31.9174 23.3197 31.4496 23.4326 31.0351 23.6645C30.6206 23.8965 30.2748 24.2389 30.0341 24.6557C29.7935 25.0725 29.667 25.5481 29.668 26.0325Z" fill="white"/>
</g>
<defs>
<clipPath id="clip0_2230_41">
<rect width="80" height="80" fill="white"/>
</clipPath>
</defs>
</svg>
