<svg width="74" height="20" viewBox="0 0 74 20" fill="none" xmlns="http://www.w3.org/2000/svg">
<ellipse cx="68.142" cy="14.1667" rx="4.10493" ry="4.16667" fill="#FA541C"/>
<path d="M48.712 18.3337H44.6882L37.9582 8.05351V18.3337H33.9343V1.66699H37.9582L44.6882 11.9946V1.66699H48.712V18.3337Z" fill="#212B36"/>
<path d="M54.8192 4.9196V8.29092H60.2059V11.4248H54.8192V15.081H60.7532V18.3337H50.9013V1.66699H60.7532V4.9196H54.8192Z" fill="#212B36"/>
<path d="M23.5579 18.3337C22.0528 18.3337 20.6692 17.9782 19.4073 17.2674C18.1607 16.5565 17.1648 15.5675 16.4199 14.3003C15.6901 13.0176 15.3252 11.5805 15.3252 9.98874C15.3252 8.39702 15.6901 6.96756 16.4199 5.70037C17.1648 4.43318 18.1607 3.44415 19.4073 2.73329C20.6692 2.02242 22.0528 1.66699 23.5579 1.66699C25.063 1.66699 26.439 2.02242 27.6856 2.73329C28.9475 3.44415 29.9358 4.43318 30.6503 5.70037C31.3801 6.96756 31.745 8.39702 31.745 9.98874C31.745 11.5805 31.3801 13.0176 30.6503 14.3003C29.9206 15.5675 28.9323 16.5565 27.6856 17.2674C26.439 17.9782 25.063 18.3337 23.5579 18.3337ZM23.5579 14.7175C24.835 14.7175 25.8536 14.2848 26.6138 13.4194C27.3892 12.554 27.7769 11.4105 27.7769 9.98874C27.7769 8.55155 27.3892 7.40799 26.6138 6.55804C25.8536 5.69264 24.835 5.25994 23.5579 5.25994C22.2656 5.25994 21.2318 5.68492 20.4564 6.53486C19.6962 7.38481 19.3161 8.5361 19.3161 9.98874C19.3161 11.4259 19.6962 12.5772 20.4564 13.4426C21.2318 14.2926 22.2656 14.7175 23.5579 14.7175Z" fill="#212B36"/>
<path d="M6.13766 15.0098H13.1359V18.3337H1.64209V15.2472L8.594 4.99083H1.64209V1.66699H13.1359V4.75341L6.13766 15.0098Z" fill="#212B36"/>
</svg>
